<svg width="25" height="26" viewBox="0 0 25 26" xmlns="http://www.w3.org/2000/svg">
<path d="M14.1799 1.46054C13.198 0.713153 11.802 0.713153 10.8201 1.46054L1.90763 8.24457C1.27167 8.72861 0.9 9.46181 0.9 10.2387V22.5453C0.9 23.9611 2.10826 25.1 3.5875 25.1H7.0375C8.51669 25.1 9.725 23.9611 9.725 22.5453V15.9995C9.725 15.6077 10.0614 15.2812 10.4875 15.2812H14.5125C14.9386 15.2812 15.275 15.6077 15.275 15.9995V22.5453C15.275 23.9611 16.4833 25.1 17.9625 25.1H21.4125C22.8917 25.1 24.1 23.9611 24.1 22.5453V10.2387C24.1 9.46181 23.7283 8.72861 23.0924 8.24457L14.1799 1.46054ZM12.0207 2.89607C12.0208 2.89607 12.0208 2.89607 12.0208 2.89607C12.3004 2.68326 12.6996 2.68326 12.9792 2.89607C12.9792 2.89607 12.9792 2.89607 12.9793 2.89607L21.8917 9.68005C22.0719 9.81723 22.175 10.0229 22.175 10.2387V22.5453C22.175 22.9371 21.8386 23.2635 21.4125 23.2635H17.9625C17.5364 23.2635 17.2 22.9371 17.2 22.5453V15.9995C17.2 14.5837 15.9917 13.4448 14.5125 13.4448H10.4875C9.00831 13.4448 7.8 14.5837 7.8 15.9995V22.5453C7.8 22.9371 7.46364 23.2635 7.0375 23.2635H3.5875C3.16136 23.2635 2.825 22.9371 2.825 22.5453V10.2387C2.825 10.0229 2.92814 9.81724 3.10832 9.68005L12.0207 2.89607Z" stroke="black" stroke-width="0.2"/>
</svg>
