<svg width="113.62mm" height="135.31mm" version="1.1" viewBox="0 0 113.62 135.31" xmlns="http://www.w3.org/2000/svg">
 <g transform="translate(-21.349 -2.7245)">
  <path d="m76.441 137.65c-1.1568-0.57087-41.505-41.116-43.298-43.509-13.267-17.711-15.503-40.403-5.8867-59.757 3.1454-6.3305 6.412-10.818 11.376-15.626 8.7939-8.519 19.118-13.633 31.389-15.548 4.1328-0.64506 12.468-0.6391 16.489 0.01177 10.426 1.6875 19.518 5.7027 27.517 12.152 2.8476 2.296 7.4072 7.0566 9.6352 10.06 13.827 18.64 15.083 43.606 3.1841 63.305-3.3597 5.5621-4.5164 6.8243-25.741 28.088-11.22 11.24-20.778 20.616-21.241 20.836-1.0657 0.5057-2.384 0.50108-3.4236-0.012zm20.017-28.097c9.9753-10.005 18.737-18.964 19.471-19.91 4.7682-6.1471 8.1458-13.376 9.5812-20.505 3.8886-19.315-4.2071-38.969-20.554-49.9-16.116-10.776-37.443-10.776-53.559 0-8.9344 5.9743-15.617 14.699-18.966 24.765-5.2427 15.753-2.3378 32.336 7.9948 45.641 1.2221 1.5735 37.412 38.1 37.749 38.1 0.0806 0 8.3082-8.1856 18.284-18.19zm-21.771-24.939c-4.1997-0.66781-8.674-2.5422-11.88-4.9768-4.5791-3.4774-7.9701-8.6991-9.4207-14.507-0.62352-2.4964-0.62749-8.788-0.0071-11.269 2.1065-8.4239 8.1434-15.345 15.855-18.177 3.2885-1.2078 4.7343-1.4473 8.8096-1.4595 5.4713-0.01641 8.9147 0.90205 13.434 3.5834 2.6328 1.5619 6.6132 5.5763 8.3408 8.4121 6.8291 11.21 3.968 25.827-6.5867 33.652-2.3148 1.716-6.1908 3.533-8.9823 4.2106-2.5586 0.62112-7.3302 0.88616-9.5627 0.53117zm7.9747-8.851c5.8959-1.585 10.784-6.7569 12.055-12.754 1.1748-5.5444-0.56913-11.368-4.6278-15.455-3.2116-3.2339-6.3634-4.6619-10.878-4.9286-11.181-0.66063-19.977 9.5567-17.539 20.375 1.5365 6.8208 6.8288 11.889 13.726 13.146 1.7015 0.30997 5.414 0.11412 7.264-0.38321z" stroke-width=".26458"/>
 </g>
</svg>
