<svg viewBox="0 0 13 12" fill="none" xmlns="http://www.w3.org/2000/svg">
  <path d="M7.78079 3.25725C7.68464 4.55412 6.70149 5.61209 5.62219 5.61209C4.54289 5.61209 3.55802 4.55437 3.46358 3.25725C3.36547 1.90812 4.32212 0.902405 5.62219 0.902405C6.92226 0.902405 7.87891 1.93265 7.78079 3.25725Z" stroke="#70B2FF" stroke-width="1.2" stroke-linecap="round" stroke-linejoin="round"/>
  <path d="M5.61221 7.17279C3.47813 7.17279 1.31217 8.35021 0.911356 10.5726C0.863033 10.8405 1.01463 11.0975 1.295 11.0975H9.92941C10.21 11.0975 10.3616 10.8405 10.3133 10.5726C9.91224 8.35021 7.74628 7.17279 5.61221 7.17279Z" stroke="#70B2FF" stroke-width="1.2" stroke-miterlimit="10"/>
  <path d="M11.4992 4.72321L8.20246 8.64794L6.78955 7.07805" stroke="white" stroke-width="2.5" stroke-linecap="round" stroke-linejoin="round"/>
  <path d="M11.4992 4.72321L8.20246 8.64794L6.78955 7.07805" stroke="#70B2FF" stroke-width="1.2" stroke-linecap="round" stroke-linejoin="round"/>
  </svg>
  