<?xml version="1.0" encoding="UTF-8" standalone="no"?>
<!-- Created with Inkscape (http://www.inkscape.org/) -->

<svg
   width="115mm"
   height="99mm"
   viewBox="0 0 115 99"
   version="1.1"
   id="svg397"
   inkscape:version="1.1 (c68e22c387, 2021-05-23)"
   sodipodi:docname="paid.svg"
   xmlns:inkscape="http://www.inkscape.org/namespaces/inkscape"
   xmlns:sodipodi="http://sodipodi.sourceforge.net/DTD/sodipodi-0.dtd"
   xmlns="http://www.w3.org/2000/svg"
   xmlns:svg="http://www.w3.org/2000/svg">
  <sodipodi:namedview
     id="namedview399"
     pagecolor="#ffffff"
     bordercolor="#666666"
     borderopacity="1.0"
     inkscape:pageshadow="2"
     inkscape:pageopacity="0.0"
     inkscape:pagecheckerboard="0"
     inkscape:document-units="mm"
     showgrid="false"
     inkscape:zoom="0.77682379"
     inkscape:cx="47.629849"
     inkscape:cy="-4.5055263"
     inkscape:window-width="1920"
     inkscape:window-height="1057"
     inkscape:window-x="-8"
     inkscape:window-y="-8"
     inkscape:window-maximized="1"
     inkscape:current-layer="layer1" />
  <defs
     id="defs394" />
  <g
     inkscape:label="Слой 1"
     inkscape:groupmode="layer"
     id="layer1">
    <path
       style="fill:#33b433;stroke:none;stroke-width:0.224483"
       d="M 91.231517,0.61073163 C 88.666837,1.0825485 86.024595,2.5337402 83.608564,3.5026158 L 69.035273,9.3463892 C 54.098996,15.335876 39.13133,21.248653 24.194381,27.2374 18.743454,29.422972 13.277978,31.570109 7.8274537,33.755457 5.7913192,34.571789 2.6053191,35.229212 1.327601,37.1653 0.00421878,39.170389 0.87711687,43.769441 0.87711687,46.11729 v 22.700816 22.026539 c 0,2.019246 -0.79940733,6.265653 0.73506613,7.803908 1.3693594,1.372837 4.6620732,0.736991 6.4394764,0.736991 H 25.091199 74.864591 90.5589 c 2.385759,0 5.296384,0.45446 7.622057,-0.08859 2.779903,-0.649108 1.794537,-5.654973 1.794537,-7.778061 0,-8.16623 -0.0169,-16.332679 0,-24.498909 0.005,-2.284465 1.474586,-2.479109 3.363056,-3.236548 l 8.51977,-3.416364 c 1.36048,-0.545715 3.48616,-1.056824 3.71418,-2.787254 0.17487,-1.328113 -0.72665,-2.85131 -1.20309,-4.045468 -1.10533,-2.770172 -2.2546,-5.52731 -3.31285,-8.316139 C 106.9413,34.373061 102.52559,23.626131 98.226689,12.852682 96.941102,9.6311662 95.6656,6.405447 94.370148,3.1879773 93.79552,1.7604777 93.034788,0.27894646 91.231517,0.61069163 M 90.5589,5.6603433 110.5131,56.006712 99.975494,60.277167 V 45.667768 c 0,-2.322227 0.313206,-4.897984 -0.048,-7.192339 -0.273529,-1.737624 -1.911116,-1.808423 -2.587763,-3.159684 -1.420341,-2.836479 -2.375226,-6.027403 -3.5523,-8.977389 -0.543468,-1.362046 -1.010482,-3.038311 -2.335089,-3.852844 -1.164288,-0.715862 -2.738206,-0.342761 -4.032312,-0.437835 -1.466742,-0.107885 -2.944028,-0.645736 -4.259888,-1.279786 -1.960887,-0.944894 -4.36862,-4.574101 -6.501925,-4.446214 -1.920541,0.114854 -4.063482,1.397112 -5.829319,2.105108 l -11.658629,4.675021 c -7.692681,3.084838 -15.400157,6.130345 -23.093062,9.215182 -2.011786,0.806893 -4.083435,1.532645 -6.053519,2.437082 -0.798618,0.366582 -1.441636,1.174371 -2.280159,1.402505 -3.889277,1.057947 -9.373316,0.07126 -13.414154,0.07126 L 22.17654,32.856414 38.767671,26.248453 72.398338,12.807815 90.5589,5.6603833 M 92.800947,36.227825 H 38.767671 l 8.968179,-3.82093 18.833174,-7.512399 6.501931,-2.601828 2.914655,-0.978382 5.380906,3.493677 4.932496,1.574224 2.602125,0.411986 1.299042,2.466072 2.600768,6.96758 m 2.690449,4.495211 V 94.890337 H 5.361206 V 40.723036 h 90.13019 m -73.31398,4.641981 c -2.180703,0.694958 -3.307554,5.336938 -4.95362,7.036802 -1.058445,1.093011 -2.416317,2.078137 -3.791229,2.730614 -1.024995,0.48638 -2.495283,0.731151 -3.099581,1.796964 -0.8008149,1.412166 -0.4876903,3.58943 -0.4876903,5.145894 v 11.462783 c 0,1.582542 -0.3624482,3.991077 0.6485573,5.343688 0.693216,0.927585 2.169917,1.185614 3.162919,1.684584 1.623821,0.815874 3.020438,1.944403 4.21854,3.310722 1.413184,1.61176 1.874573,4.647594 3.454745,5.910522 1.111449,0.888258 2.887867,0.607531 4.209552,0.607531 h 9.64079 30.491807 8.968179 c 1.305097,0 3.022049,0.286347 4.256517,-0.200934 1.993185,-0.786666 3.019815,-5.113306 4.526466,-6.763273 1.098376,-1.203143 2.530378,-2.266707 3.996673,-2.973579 1.141645,-0.550216 2.613545,-0.761719 3.260608,-1.98419 0.708485,-1.338452 0.326663,-3.46333 0.326663,-4.935071 V 62.075291 c 0,-1.487689 0.438098,-3.847679 -0.416573,-5.145894 -1.392314,-2.114769 -5.260286,-2.747247 -7.110417,-4.7638 -1.577729,-1.719645 -2.320516,-5.31424 -4.155187,-6.529746 -1.120799,-0.742607 -2.958372,-0.417603 -4.236338,-0.417603 H 64.999593 35.404605 26.436427 c -1.327964,0 -2.981697,-0.260498 -4.259011,0.146769 m 2.328611,4.483972 3.49983,-0.13553 h 7.847155 28.473969 8.743974 l 3.444448,0.231053 3.570683,5.159833 6.206652,4.641755 0.23048,3.902514 v 8.540899 l -0.135194,3.508517 -2.331049,1.538035 -4.015504,3.269596 -3.694886,5.258714 -3.499835,0.135539 H 64.999593 36.525628 27.781652 l -3.430553,-0.231061 -3.315826,-4.93844 -3.79123,-3.273406 -2.684219,-1.592431 -0.230439,-3.899825 v -8.540899 l 0.135284,-3.508516 2.106762,-1.438914 4.026845,-3.144175 3.907751,-5.483258 m 24.57505,4.455201 c -2.173662,0.296916 -4.200246,0.915456 -6.053522,2.121738 -7.119613,4.633895 -8.092436,15.217639 -2.009095,21.137611 3.098729,3.015386 7.454127,4.119866 11.649888,3.551442 1.678618,-0.227231 3.245135,-0.86533 4.708292,-1.704582 12.101209,-6.939928 5.69502,-27.016221 -8.295563,-25.106209 m 0.672613,4.464199 c 5.947247,-0.703723 10.731098,5.279623 9.524654,10.948764 -0.851529,4.001857 -4.228271,6.659202 -8.179429,7.05321 -7.995579,0.797445 -12.631679,-9.327566 -7.331261,-15.124367 1.582885,-1.73133 3.695339,-2.606549 5.986036,-2.877607 m -24.438287,5.67992 c -4.359363,0.50414 -3.471961,7.138853 0.896818,6.574929 4.144196,-0.534937 3.239308,-7.05322 -0.896818,-6.574929 m 49.549188,2.3e-4 c -4.333201,0.514929 -3.440866,7.133003 0.896813,6.574699 4.202944,-0.541007 3.24805,-7.067379 -0.896813,-6.574699 m -49.316015,2.270757 c 1.293213,-0.135529 1.57369,1.97272 0.207389,2.014077 -1.221241,0.0373 -1.444325,-1.884618 -0.207389,-2.014077 m 49.764426,0.0261 c 1.230878,0.09659 1.297467,2.006217 -0.006,2.006217 -1.349264,0 -1.330881,-2.111179 0.006,-2.006217 z"
       id="path109" />
  </g>
</svg>
