<svg width="24" height="24" viewBox="0 0 24 24" xmlns="http://www.w3.org/2000/svg">
<circle cx="12" cy="12" r="11.25" fill="none" stroke-width="1.5"/>
<path d="M12 12.15C14.0158 12.15 15.65 10.5158 15.65 8.49999C15.65 6.48416 14.0158 4.85 12 4.85C9.98416 4.85 8.35 6.48416 8.35 8.49999C8.35 10.5158 9.98416 12.15 12 12.15ZM12 6.15C13.2979 6.15 14.35 7.20213 14.35 8.49999C14.35 9.79786 13.2979 10.85 12 10.85C10.7021 10.85 9.65 9.79786 9.65 8.49999C9.65 7.20213 10.7021 6.15 12 6.15ZM7.75 12.85C6.70064 12.85 5.84997 13.7007 5.85 14.7501L5.85001 15C5.85002 16.266 6.65526 17.319 7.76193 18.0232C8.87654 18.7326 10.3766 19.15 11.9999 19.15C13.6233 19.15 15.1234 18.7326 16.238 18.0232C17.3447 17.319 18.15 16.266 18.15 15V14.75C18.15 13.7007 17.2993 12.85 16.25 12.85H7.75ZM7.15 14.75C7.14999 14.4186 7.41862 14.15 7.75 14.15H16.25C16.5814 14.15 16.85 14.4186 16.85 14.75V15C16.85 15.6675 16.4235 16.3643 15.5401 16.9265C14.6641 17.4839 13.4142 17.85 11.9999 17.85C10.5857 17.85 9.33586 17.4839 8.45986 16.9265C7.5765 16.3643 7.15 15.6675 7.15 15L7.15 14.75Z" stroke-width="0.3"/>
</svg>
