<svg viewBox="0 0 14 14" fill="none" xmlns="http://www.w3.org/2000/svg">
  <path d="M13 7C13 3.6875 10.3125 1 7 1C3.6875 1 1 3.6875 1 7C1 10.3125 3.6875 13 7 13C10.3125 13 13 10.3125 13 7Z" stroke="#FF3347" stroke-width="1.2" stroke-miterlimit="10" />
  <path d="M6.82062 4.18903L6.99999 7.99997L7.17906 4.18903C7.18016 4.16467 7.17629 4.14034 7.16767 4.11752C7.15906 4.09471 7.14588 4.07389 7.12894 4.05634C7.11201 4.03879 7.09167 4.02488 7.06918 4.01546C7.04668 4.00603 7.02251 4.0013 6.99812 4.00153V4.00153C6.97402 4.00176 6.95022 4.00684 6.92813 4.01647C6.90604 4.0261 6.88611 4.04008 6.86955 4.05759C6.85298 4.07509 6.84011 4.09574 6.8317 4.11833C6.8233 4.14091 6.81953 4.16496 6.82062 4.18903V4.18903Z" stroke="#FF3347" stroke-width="1.2" stroke-linecap="round" stroke-linejoin="round" />
  <path d="M7 10.4972C6.87639 10.4972 6.75555 10.4605 6.65277 10.3919C6.54999 10.3232 6.46988 10.2256 6.42258 10.1114C6.37527 9.99717 6.36289 9.8715 6.38701 9.75026C6.41113 9.62902 6.47065 9.51766 6.55806 9.43025C6.64547 9.34284 6.75683 9.28332 6.87807 9.2592C6.99931 9.23509 7.12497 9.24746 7.23918 9.29477C7.35338 9.34207 7.45099 9.42218 7.51967 9.52496C7.58834 9.62774 7.625 9.74858 7.625 9.87219C7.625 10.038 7.55915 10.1969 7.44194 10.3141C7.32473 10.4313 7.16576 10.4972 7 10.4972Z" fill="#FF3347" />
</svg>