<svg width="23" height="23" viewBox="0 0 23 23" fill="none" xmlns="http://www.w3.org/2000/svg">
<path d="M2.875 11.5H6.46875M16.5312 5.75H20.125H16.5312ZM2.875 5.75H13.6562H2.875ZM16.5312 17.25H20.125H16.5312ZM2.875 17.25H13.6562H2.875ZM9.34375 11.5H20.125H9.34375Z" stroke="white" stroke-width="1.1875" stroke-linecap="round" stroke-linejoin="round"/>
<path d="M15.0938 7.1875C15.8877 7.1875 16.5312 6.54391 16.5312 5.75C16.5312 4.95609 15.8877 4.3125 15.0938 4.3125C14.2998 4.3125 13.6562 4.95609 13.6562 5.75C13.6562 6.54391 14.2998 7.1875 15.0938 7.1875Z" stroke="white" stroke-width="1.1875" stroke-linecap="round" stroke-linejoin="round"/>
<path d="M7.90625 12.9375C8.70016 12.9375 9.34375 12.2939 9.34375 11.5C9.34375 10.7061 8.70016 10.0625 7.90625 10.0625C7.11234 10.0625 6.46875 10.7061 6.46875 11.5C6.46875 12.2939 7.11234 12.9375 7.90625 12.9375Z" stroke="white" stroke-width="1.1875" stroke-linecap="round" stroke-linejoin="round"/>
<path d="M15.0938 18.6875C15.8877 18.6875 16.5312 18.0439 16.5312 17.25C16.5312 16.4561 15.8877 15.8125 15.0938 15.8125C14.2998 15.8125 13.6562 16.4561 13.6562 17.25C13.6562 18.0439 14.2998 18.6875 15.0938 18.6875Z" stroke="white" stroke-width="1.1875" stroke-linecap="round" stroke-linejoin="round"/>
</svg>