<svg width="30" height="32" viewBox="0 0 30 32" xmlns="http://www.w3.org/2000/svg">
<path d="M3.42566 5.32493C3.42566 4.4827 4.07342 3.79993 4.87245 3.79993H12.1064C12.9055 3.79993 13.5532 4.4827 13.5532 5.32493V8.37493C13.5532 9.21715 12.9055 9.89993 12.1064 9.89993H4.87245C4.0734 9.89993 3.42566 9.21715 3.42566 8.37493V5.32493ZM12.1064 5.32493H4.87245V8.37493H12.1064V5.32493Z" fill="#949494"/>
<path d="M3.42566 14.4751C3.42566 13.6328 4.07342 12.9501 4.87245 12.9501H12.1064C12.9055 12.9501 13.5532 13.6328 13.5532 14.4751V17.5251C13.5532 18.3673 12.9055 19.0501 12.1064 19.0501H4.87245C4.0734 19.0501 3.42566 18.3673 3.42566 17.5251V14.4751ZM12.1064 14.4751H4.87245V17.5251H12.1064V14.4751Z" fill="#949494"/>
<path d="M4.87245 22.1001C4.07342 22.1001 3.42566 22.7828 3.42566 23.6251V26.6751C3.42566 27.5174 4.0734 28.2001 4.87245 28.2001H12.1064C12.9055 28.2001 13.5532 27.5174 13.5532 26.6751V23.6251C13.5532 22.7828 12.9055 22.1001 12.1064 22.1001H4.87245ZM4.87245 23.6251H12.1064V26.6751H4.87245V23.6251Z" fill="#949494"/>
<path d="M16.4468 5.32493C16.4468 4.4827 17.0945 3.79993 17.8936 3.79993H25.1275C25.9266 3.79993 26.5743 4.4827 26.5743 5.32493V8.37493C26.5743 9.21715 25.9266 9.89993 25.1275 9.89993H17.8936C17.0945 9.89993 16.4468 9.21715 16.4468 8.37493V5.32493ZM25.1275 5.32493H17.8936V8.37493H25.1275V5.32493Z" fill="#949494"/>
<path d="M17.8936 12.9501C17.0945 12.9501 16.4468 13.6328 16.4468 14.4751V17.5251C16.4468 18.3673 17.0945 19.0501 17.8936 19.0501H25.1275C25.9266 19.0501 26.5743 18.3673 26.5743 17.5251V14.4751C26.5743 13.6328 25.9266 12.9501 25.1275 12.9501H17.8936ZM17.8936 14.4751H25.1275V17.5251H17.8936V14.4751Z" fill="#949494"/>
</svg>
